<svg width="194" height="194" viewBox="0 0 194 194" fill="none" xmlns="http://www.w3.org/2000/svg">
<g clip-path="url(#clip0_1_3809)">
<path d="M79.055 77.0612C96.9122 77.0612 111.388 62.5851 111.388 44.7279C111.388 26.8707 96.9122 12.3945 79.055 12.3945C61.1978 12.3945 46.7217 26.8707 46.7217 44.7279C46.7217 62.5851 61.1978 77.0612 79.055 77.0612Z" fill="black"/>
<path d="M88.5929 171.475C86.812 169.713 85.65 167.422 85.2808 164.945C84.9116 162.467 85.3552 159.937 86.5451 157.733L89.4012 152.344L83.5273 150.566C81.132 149.816 79.0467 148.305 77.5879 146.263C76.129 144.221 75.3763 141.758 75.444 139.249V128.202C75.4395 125.704 76.2386 123.271 77.7234 121.262C79.2081 119.253 81.2997 117.775 83.689 117.047L89.5629 115.268L86.7607 109.88C85.6056 107.706 85.1661 105.223 85.5048 102.784C85.8434 100.346 86.943 98.0765 88.6468 96.2995C84.501 95.7561 80.3257 95.4681 76.1446 95.4373C63.795 95.1466 51.5334 97.5846 40.2343 102.577C28.9352 107.57 18.8771 114.995 10.7773 124.322V166.086C10.7773 167.515 11.3451 168.886 12.3557 169.896C13.3663 170.907 14.737 171.475 16.1662 171.475H88.5929Z" fill="black"/>
<path d="M181.606 126.423L170.828 123.19C170.081 120.528 169.033 117.961 167.703 115.538L173.091 105.514C173.3 105.142 173.376 104.711 173.307 104.29C173.239 103.869 173.03 103.484 172.714 103.197L164.9 95.3294C164.599 95.0365 164.216 94.8432 163.801 94.7757C163.387 94.7083 162.961 94.7699 162.583 94.9522L152.614 100.341C150.16 99.008 147.578 97.9248 144.908 97.1077L141.62 86.3299C141.476 85.9325 141.211 85.5897 140.864 85.3485C140.517 85.1072 140.103 84.9795 139.68 84.9827H128.471C128.051 84.9945 127.645 85.1352 127.307 85.3859C126.97 85.6365 126.718 85.985 126.585 86.3838L123.352 97.1616C120.63 97.9537 118.008 99.0567 115.538 100.449L105.784 95.0599C105.405 94.8584 104.972 94.7812 104.546 94.8392C104.121 94.8972 103.724 95.0876 103.413 95.3833L95.4914 103.143C95.1795 103.444 94.974 103.838 94.9059 104.266C94.8379 104.694 94.911 105.132 95.1142 105.514L100.503 115.322C99.0595 117.756 97.885 120.34 97.0003 123.028L86.2225 126.316C85.8148 126.433 85.457 126.682 85.204 127.022C84.9509 127.363 84.8165 127.777 84.8214 128.202V139.249C84.8165 139.673 84.9509 140.087 85.204 140.428C85.457 140.769 85.8148 141.017 86.2225 141.135L97.0003 144.422C97.8082 147.061 98.8919 149.608 100.234 152.021L94.8448 162.259C94.6415 162.642 94.5684 163.08 94.6365 163.508C94.7045 163.936 94.9101 164.33 95.222 164.631L103.251 172.444C103.563 172.74 103.959 172.93 104.385 172.988C104.81 173.046 105.243 172.969 105.623 172.768L115.7 167.379C118.098 168.669 120.627 169.698 123.244 170.451L126.478 181.498C126.613 181.905 126.873 182.26 127.222 182.511C127.57 182.763 127.988 182.898 128.418 182.899H139.465C139.885 182.887 140.291 182.746 140.629 182.496C140.966 182.245 141.218 181.897 141.351 181.498L144.584 170.451C147.17 169.708 149.665 168.677 152.021 167.379L162.206 172.768C162.585 172.969 163.018 173.046 163.444 172.988C163.869 172.93 164.266 172.74 164.577 172.444L172.445 164.631C172.74 164.319 172.931 163.923 172.989 163.497C173.047 163.072 172.97 162.639 172.768 162.259L167.379 152.128C168.668 149.767 169.698 147.274 170.451 144.692L181.229 141.404C181.634 141.274 181.989 141.024 182.249 140.687C182.509 140.351 182.66 139.943 182.684 139.518V128.363C182.697 127.973 182.603 127.586 182.414 127.244C182.224 126.902 181.945 126.619 181.606 126.423ZM134.022 151.859C130.46 151.869 126.975 150.823 124.008 148.852C121.041 146.88 118.725 144.073 117.355 140.785C115.984 137.497 115.62 133.877 116.308 130.382C116.997 126.887 118.707 123.675 121.222 121.152C123.737 118.629 126.944 116.91 130.437 116.211C133.93 115.512 137.551 115.865 140.843 117.226C144.135 118.587 146.95 120.894 148.93 123.855C150.91 126.816 151.967 130.298 151.967 133.86C151.967 138.624 150.078 143.194 146.714 146.568C143.35 149.942 138.786 151.845 134.022 151.859Z" fill="black"/>
</g>
<defs>
<clipPath id="clip0_1_3809">
<rect width="194" height="194" fill="white"/>
</clipPath>
</defs>
</svg>
