<svg width="132" height="132" viewBox="0 0 132 132" fill="none" xmlns="http://www.w3.org/2000/svg">
<path d="M115.778 55.7564V122.929C115.778 124.805 115.029 126.603 113.695 127.929C112.361 129.255 110.553 130 108.667 130H9.11111C7.22513 130 5.41639 129.255 4.0828 127.929C2.7492 126.603 2 124.805 2 122.929V23.9375C2 22.0622 2.7492 20.2637 4.0828 18.9377C5.41639 17.6117 7.22513 16.8667 9.11111 16.8667H74.4053" stroke="black" stroke-width="4" stroke-miterlimit="10" stroke-linecap="round" stroke-linejoin="round"/>
<path d="M101.556 16.8665H130M115.76 2V30.2834M23.3335 91.2164L44.6668 62.827L55.3335 73.4332L67.7779 53.9884L94.4446 91.2164H23.3335Z" stroke="black" stroke-width="4" stroke-miterlimit="10" stroke-linecap="round" stroke-linejoin="round"/>
</svg>
