<svg width="29" height="28" viewBox="0 0 29 28" fill="none" xmlns="http://www.w3.org/2000/svg">
<g filter="url(#filter0_d_1_318)">
<path d="M5 1L7.08 1.36L8.043 12.833C8.12 13.77 8.903 14.489 9.843 14.486H20.752C21.649 14.488 22.41 13.828 22.537 12.94L23.486 6.382C23.592 5.649 23.083 4.969 22.351 4.863C22.287 4.854 7.414 4.849 7.414 4.849" stroke="#101623" stroke-width="1.5" stroke-linecap="round" stroke-linejoin="round"/>
<path d="M16.375 8.54492H19.148" stroke="#101623" stroke-width="1.5" stroke-linecap="round" stroke-linejoin="round"/>
<path fill-rule="evenodd" clip-rule="evenodd" d="M9.40435 17.9526C9.70535 17.9526 9.94835 18.1966 9.94835 18.4966C9.94835 18.7976 9.70535 19.0416 9.40435 19.0416C9.10335 19.0416 8.86035 18.7976 8.86035 18.4966C8.86035 18.1966 9.10335 17.9526 9.40435 17.9526Z" fill="#101623" stroke="#101623" stroke-width="1.5" stroke-linecap="round" stroke-linejoin="round"/>
<path fill-rule="evenodd" clip-rule="evenodd" d="M20.6846 17.9526C20.9856 17.9526 21.2296 18.1966 21.2296 18.4966C21.2296 18.7976 20.9856 19.0416 20.6846 19.0416C20.3836 19.0416 20.1406 18.7976 20.1406 18.4966C20.1406 18.1966 20.3836 17.9526 20.6846 17.9526Z" fill="#101623" stroke="#101623" stroke-width="1.5" stroke-linecap="round" stroke-linejoin="round"/>
</g>
<defs>
<filter id="filter0_d_1_318" x="0.249878" y="0.25" width="28.0002" height="27.5415" filterUnits="userSpaceOnUse" color-interpolation-filters="sRGB">
<feFlood flood-opacity="0" result="BackgroundImageFix"/>
<feColorMatrix in="SourceAlpha" type="matrix" values="0 0 0 0 0 0 0 0 0 0 0 0 0 0 0 0 0 0 127 0" result="hardAlpha"/>
<feOffset dy="4"/>
<feGaussianBlur stdDeviation="2"/>
<feComposite in2="hardAlpha" operator="out"/>
<feColorMatrix type="matrix" values="0 0 0 0 0 0 0 0 0 0 0 0 0 0 0 0 0 0 0.25 0"/>
<feBlend mode="normal" in2="BackgroundImageFix" result="effect1_dropShadow_1_318"/>
<feBlend mode="normal" in="SourceGraphic" in2="effect1_dropShadow_1_318" result="shape"/>
</filter>
</defs>
</svg>
