<svg width="34" height="36" viewBox="0 0 34 36" fill="none" xmlns="http://www.w3.org/2000/svg">
<g clip-path="url(#clip0_1_230)">
<path d="M29.6264 3.12376C30.1845 3.12376 30.7198 3.35183 31.1144 3.7578C31.5091 4.16378 31.7308 4.7144 31.7308 5.28853V22.6067C31.7308 23.1808 31.5091 23.7315 31.1144 24.1374C30.7198 24.5434 30.1845 24.7715 29.6264 24.7715H9.45447C8.33836 24.7717 7.26805 25.228 6.47897 26.04L2.27033 30.3696V5.28853C2.27033 4.7144 2.49204 4.16378 2.88667 3.7578C3.28131 3.35183 3.81655 3.12376 4.37465 3.12376H29.6264ZM4.37465 0.958984C3.25845 0.958984 2.18797 1.41513 1.3987 2.22708C0.609424 3.03903 0.166016 4.14026 0.166016 5.28853L0.166016 32.9825C0.16606 33.1966 0.227867 33.406 0.343614 33.584C0.459361 33.762 0.623845 33.9007 0.816248 33.9825C1.00865 34.0644 1.22032 34.0856 1.42447 34.0436C1.62862 34.0016 1.81607 33.8983 1.9631 33.7466L7.96672 27.5705C8.36126 27.1645 8.89642 26.9364 9.45447 26.9363H29.6264C30.7426 26.9363 31.8131 26.4801 32.6024 25.6682C33.3917 24.8562 33.8351 23.755 33.8351 22.6067V5.28853C33.8351 4.14026 33.3917 3.03903 32.6024 2.22708C31.8131 1.41513 30.7426 0.958984 29.6264 0.958984L4.37465 0.958984Z" fill="black"/>
<path d="M6.479 8.53551C6.479 8.24844 6.58986 7.97314 6.78717 7.77015C6.98449 7.56716 7.25211 7.45312 7.53116 7.45312H26.47C26.7491 7.45312 27.0167 7.56716 27.214 7.77015C27.4113 7.97314 27.5222 8.24844 27.5222 8.53551C27.5222 8.82258 27.4113 9.09789 27.214 9.30087C27.0167 9.50386 26.7491 9.6179 26.47 9.6179H7.53116C7.25211 9.6179 6.98449 9.50386 6.78717 9.30087C6.58986 9.09789 6.479 8.82258 6.479 8.53551ZM6.479 13.9474C6.479 13.6604 6.58986 13.3851 6.78717 13.1821C6.98449 12.9791 7.25211 12.8651 7.53116 12.8651H26.47C26.7491 12.8651 27.0167 12.9791 27.214 13.1821C27.4113 13.3851 27.5222 13.6604 27.5222 13.9474C27.5222 14.2345 27.4113 14.5098 27.214 14.7128C27.0167 14.9158 26.7491 15.0298 26.47 15.0298H7.53116C7.25211 15.0298 6.98449 14.9158 6.78717 14.7128C6.58986 14.5098 6.479 14.2345 6.479 13.9474ZM6.479 19.3594C6.479 19.0723 6.58986 18.797 6.78717 18.594C6.98449 18.391 7.25211 18.277 7.53116 18.277H18.0527C18.3318 18.277 18.5994 18.391 18.7967 18.594C18.9941 18.797 19.1049 19.0723 19.1049 19.3594C19.1049 19.6464 18.9941 19.9218 18.7967 20.1247C18.5994 20.3277 18.3318 20.4418 18.0527 20.4418H7.53116C7.25211 20.4418 6.98449 20.3277 6.78717 20.1247C6.58986 19.9218 6.479 19.6464 6.479 19.3594Z" fill="black"/>
</g>
<defs>
<clipPath id="clip0_1_230">
<rect width="33.6691" height="34.6364" fill="white" transform="translate(0.166016 0.958984)"/>
</clipPath>
</defs>
</svg>
