<svg width="42" height="42" viewBox="0 0 42 42" fill="none" xmlns="http://www.w3.org/2000/svg">
<circle cx="21" cy="21" r="21" fill="#C2D1D9" fill-opacity="0.38"/>
<circle cx="21.5" cy="20.5" r="14.5" fill="#0295DE"/>
<path d="M17.2987 16.2013C17.1565 16.0688 16.9685 15.9967 16.7742 16.0001C16.5799 16.0035 16.3945 16.0823 16.2571 16.2197C16.1197 16.3571 16.041 16.5425 16.0375 16.7368C16.0341 16.9311 16.1062 17.1191 16.2387 17.2613L19.9587 20.9813L16.2387 24.7013C16.165 24.77 16.1059 24.8528 16.0649 24.9448C16.0239 25.0368 16.0019 25.1361 16.0001 25.2368C15.9983 25.3375 16.0169 25.4375 16.0546 25.5309C16.0923 25.6243 16.1485 25.7091 16.2197 25.7803C16.2909 25.8515 16.3757 25.9077 16.4691 25.9454C16.5625 25.9831 16.6625 26.0017 16.7632 25.9999C16.8639 25.9981 16.9632 25.9761 17.0552 25.9351C17.1472 25.8941 17.23 25.835 17.2987 25.7613L21.0187 22.0413L24.7387 25.7613C24.8074 25.835 24.8902 25.8941 24.9822 25.9351C25.0742 25.9761 25.1735 25.9981 25.2742 25.9999C25.3749 26.0017 25.4749 25.9831 25.5683 25.9454C25.6617 25.9077 25.7465 25.8515 25.8177 25.7803C25.889 25.7091 25.9451 25.6243 25.9828 25.5309C26.0206 25.4375 26.0391 25.3375 26.0373 25.2368C26.0355 25.1361 26.0135 25.0368 25.9725 24.9448C25.9315 24.8528 25.8724 24.77 25.7987 24.7013L22.0787 20.9813L25.7987 17.2613C25.9312 17.1191 26.0033 16.9311 25.9999 16.7368C25.9965 16.5425 25.9177 16.3571 25.7803 16.2197C25.6429 16.0823 25.4575 16.0035 25.2632 16.0001C25.0689 15.9967 24.8809 16.0688 24.7387 16.2013L21.0187 19.9213L17.2987 16.2013Z" fill="#F8F8FB"/>
</svg>
