<svg width="45" height="46" viewBox="0 0 45 46" fill="none" xmlns="http://www.w3.org/2000/svg">
<g clip-path="url(#clip0_1_237)">
<path d="M35.625 12.0063C34.0625 12.0063 32.7344 11.4595 31.6406 10.3657C30.5469 9.27197 30 7.94385 30 6.38135C30 4.81885 30.5469 3.49072 31.6406 2.39697C32.7344 1.30322 34.0625 0.756348 35.625 0.756348C37.1875 0.756348 38.5156 1.30322 39.6094 2.39697C40.7031 3.49072 41.25 4.81885 41.25 6.38135C41.25 7.94385 40.7031 9.27197 39.6094 10.3657C38.5156 11.4595 37.1875 12.0063 35.625 12.0063ZM3.75 42.0063V8.25635C3.75 7.2251 4.1175 6.34197 4.8525 5.60697C5.58625 4.87322 6.46875 4.50635 7.5 4.50635H26.4375C26.3125 5.13135 26.25 5.75635 26.25 6.38135C26.25 7.00635 26.3125 7.63135 26.4375 8.25635C26.5938 8.9751 26.8125 9.64697 27.0938 10.272C27.375 10.897 27.7188 11.4751 28.125 12.0063H11.25V15.7563H35.625C36.625 15.7563 37.6094 15.6001 38.5781 15.2876C39.5469 14.9751 40.4375 14.5063 41.25 13.8813V30.7563C41.25 31.7876 40.8831 32.6707 40.1494 33.4057C39.4144 34.1395 38.5312 34.5063 37.5 34.5063H11.25L3.75 42.0063ZM11.25 21.3813H33.75V17.6313H11.25V21.3813ZM11.25 27.0063H26.25V23.2563H11.25V27.0063Z" fill="black"/>
</g>
<defs>
<clipPath id="clip0_1_237">
<rect width="45" height="45" fill="white" transform="translate(0 0.756348)"/>
</clipPath>
</defs>
</svg>
