<svg width="12" height="10" viewBox="0 0 12 10" fill="none" xmlns="http://www.w3.org/2000/svg">
<path d="M4.21023 9.28976C4.10078 9.28988 3.99239 9.26836 3.89129 9.22646C3.79018 9.18456 3.69835 9.1231 3.62106 9.0456L0.421064 5.8456C0.341472 5.76872 0.277986 5.67677 0.234312 5.5751C0.190638 5.47343 0.167649 5.36408 0.166688 5.25343C0.165726 5.14278 0.186811 5.03305 0.228712 4.93063C0.270613 4.82822 0.33249 4.73518 0.410734 4.65693C0.488978 4.57869 0.582021 4.51681 0.684435 4.47491C0.786849 4.43301 0.896582 4.41193 1.00723 4.41289C1.11788 4.41385 1.22723 4.43684 1.3289 4.48051C1.43057 4.52419 1.52252 4.58767 1.5994 4.66726L4.21023 7.2781L10.4211 1.06726C10.5782 0.915464 10.7887 0.831469 11.0072 0.833367C11.2257 0.835266 11.4347 0.922907 11.5892 1.07741C11.7438 1.23192 11.8314 1.44093 11.8333 1.65943C11.8352 1.87793 11.7512 2.08843 11.5994 2.2456L4.7994 9.0456C4.72211 9.1231 4.63028 9.18456 4.52917 9.22646C4.42807 9.26836 4.31968 9.28988 4.21023 9.28976Z" fill="white"/>
</svg>
