<svg width="53" height="54" viewBox="0 0 53 54" fill="none" xmlns="http://www.w3.org/2000/svg">
<g filter="url(#filter0_d_1_226)">
<path d="M4.97461 1.95372C4.97461 1.43556 5.17259 0.938623 5.525 0.57223C5.87742 0.205837 6.35539 0 6.85377 0H8.25187C10.6321 0 12.0603 1.66457 12.8746 3.21191C13.4183 4.24347 13.8117 5.43915 14.1199 6.52281C14.2032 6.51597 14.2868 6.51249 14.3704 6.51239H45.6848C47.7644 6.51239 49.2678 8.58073 48.6965 10.6621L44.1163 27.3573C43.7057 28.8547 42.8369 30.1723 41.6416 31.1105C40.4462 32.0487 38.9894 32.5564 37.4917 32.5567H22.5886C21.079 32.5568 19.6112 32.0414 18.4107 31.0898C17.2102 30.1382 16.3436 28.803 15.9439 27.2895L14.0397 20.0686L10.8827 9.00273L10.8802 8.98189C10.4893 7.50488 10.1235 6.12165 9.57731 5.09009C9.05365 4.08718 8.63272 3.90743 8.25438 3.90743H6.85377C6.35539 3.90743 5.87742 3.7016 5.525 3.3352C5.17259 2.96881 4.97461 2.47188 4.97461 1.95372ZM17.6853 19.1204L19.5669 26.2554C19.9428 27.6672 21.178 28.6493 22.5886 28.6493H37.4917C38.1724 28.6493 38.8347 28.4187 39.3781 27.9924C39.9215 27.566 40.3165 26.9672 40.5033 26.2866L44.8555 10.4198H15.2098L17.6502 18.9823L17.6853 19.1204ZM26.2718 40.3768C26.2718 41.7586 25.7438 43.0837 24.8041 44.0608C23.8643 45.0378 22.5897 45.5867 21.2607 45.5867C19.9317 45.5867 18.6571 45.0378 17.7173 44.0608C16.7775 43.0837 16.2496 41.7586 16.2496 40.3768C16.2496 38.9951 16.7775 37.6699 17.7173 36.6929C18.6571 35.7158 19.9317 35.1669 21.2607 35.1669C22.5897 35.1669 23.8643 35.7158 24.8041 36.6929C25.7438 37.6699 26.2718 38.9951 26.2718 40.3768ZM22.5135 40.3768C22.5135 40.0314 22.3815 39.7001 22.1465 39.4558C21.9116 39.2116 21.593 39.0743 21.2607 39.0743C20.9284 39.0743 20.6098 39.2116 20.3749 39.4558C20.1399 39.7001 20.0079 40.0314 20.0079 40.3768C20.0079 40.7223 20.1399 41.0536 20.3749 41.2978C20.6098 41.5421 20.9284 41.6793 21.2607 41.6793C21.593 41.6793 21.9116 41.5421 22.1465 41.2978C22.3815 41.0536 22.5135 40.7223 22.5135 40.3768ZM43.8107 40.3768C43.8107 41.7586 43.2827 43.0837 42.3429 44.0608C41.4032 45.0378 40.1286 45.5867 38.7996 45.5867C37.4705 45.5867 36.1959 45.0378 35.2562 44.0608C34.3164 43.0837 33.7885 41.7586 33.7885 40.3768C33.7885 38.9951 34.3164 37.6699 35.2562 36.6929C36.1959 35.7158 37.4705 35.1669 38.7996 35.1669C40.1286 35.1669 41.4032 35.7158 42.3429 36.6929C43.2827 37.6699 43.8107 38.9951 43.8107 40.3768ZM40.0523 40.3768C40.0523 40.0314 39.9204 39.7001 39.6854 39.4558C39.4505 39.2116 39.1318 39.0743 38.7996 39.0743C38.4673 39.0743 38.1487 39.2116 37.9137 39.4558C37.6788 39.7001 37.5468 40.0314 37.5468 40.3768C37.5468 40.7223 37.6788 41.0536 37.9137 41.2978C38.1487 41.5421 38.4673 41.6793 38.7996 41.6793C39.1318 41.6793 39.4505 41.5421 39.6854 41.2978C39.9204 41.0536 40.0523 40.7223 40.0523 40.3768Z" fill="black"/>
</g>
<defs>
<filter id="filter0_d_1_226" x="0.974609" y="0" width="51.8442" height="53.5869" filterUnits="userSpaceOnUse" color-interpolation-filters="sRGB">
<feFlood flood-opacity="0" result="BackgroundImageFix"/>
<feColorMatrix in="SourceAlpha" type="matrix" values="0 0 0 0 0 0 0 0 0 0 0 0 0 0 0 0 0 0 127 0" result="hardAlpha"/>
<feOffset dy="4"/>
<feGaussianBlur stdDeviation="2"/>
<feComposite in2="hardAlpha" operator="out"/>
<feColorMatrix type="matrix" values="0 0 0 0 0 0 0 0 0 0 0 0 0 0 0 0 0 0 0.25 0"/>
<feBlend mode="normal" in2="BackgroundImageFix" result="effect1_dropShadow_1_226"/>
<feBlend mode="normal" in="SourceGraphic" in2="effect1_dropShadow_1_226" result="shape"/>
</filter>
</defs>
</svg>
