<svg width="43" height="43" viewBox="0 0 43 43" fill="none" xmlns="http://www.w3.org/2000/svg">
<circle cx="21.5" cy="21.5" r="21.5" fill="#E8F3F1"/>
<mask id="mask0_1_422" style="mask-type:luminance" maskUnits="userSpaceOnUse" x="10" y="15" width="22" height="21">
<path fill-rule="evenodd" clip-rule="evenodd" d="M10.0962 15.1475H31.5514V35.6091H10.0962V15.1475Z" fill="white"/>
</mask>
<g mask="url(#mask0_1_422)">
<path fill-rule="evenodd" clip-rule="evenodd" d="M12.0072 24.72C13.4765 29.2969 19.2814 32.9976 20.824 33.9136C22.3719 32.9882 28.2187 29.2465 29.6409 24.7242C30.5746 21.8009 29.7079 18.0981 26.2642 16.9869C24.5958 16.4508 22.6496 16.7771 21.3061 17.818C21.0252 18.0341 20.6354 18.0383 20.3524 17.8242C18.9292 16.753 17.0701 16.4392 15.3755 16.9869C11.937 18.0971 11.0734 21.7999 12.0072 24.72ZM20.8251 35.6092C20.6951 35.6092 20.5662 35.5777 20.4488 35.5137C20.1208 35.3343 12.3939 31.0701 10.5107 25.2006C10.5096 25.2006 10.5096 25.1995 10.5096 25.1995C9.32747 21.504 10.6438 16.86 14.8934 15.4886C16.8888 14.8422 19.0634 15.1266 20.8219 16.2378C22.526 15.1591 24.7897 14.8611 26.7452 15.4886C30.9991 16.8621 32.3195 21.5051 31.1384 25.1995C29.316 31.0019 21.5325 35.3301 21.2024 35.5116C21.085 35.5767 20.955 35.6092 20.8251 35.6092Z" fill="#199A8E"/>
</g>
<path fill-rule="evenodd" clip-rule="evenodd" d="M27.0253 23.148C26.6198 23.148 26.276 22.8364 26.2425 22.4251C26.1733 21.5626 25.5969 20.8344 24.7763 20.5689C24.3624 20.4346 24.136 19.9908 24.2691 19.5784C24.4043 19.165 24.8434 18.9405 25.2584 19.0706C26.6868 19.5333 27.6877 20.7998 27.8103 22.2971C27.8449 22.7304 27.5231 23.1102 27.0903 23.1449C27.0683 23.147 27.0473 23.148 27.0253 23.148Z" fill="#199A8E"/>
</svg>
