<svg width="112" height="112" viewBox="0 0 112 112" fill="none" xmlns="http://www.w3.org/2000/svg">
<g filter="url(#filter0_d_1_2075)">
<circle cx="56.4899" cy="51.9379" r="51.5101" fill="#F5F8FF"/>
<path d="M39.1323 35.2418H53.5073C54.825 35.2418 55.9031 34.1637 55.9031 32.846C55.9031 31.5283 54.825 30.4502 53.5073 30.4502H39.1323C36.4969 30.4502 34.3407 32.6064 34.3407 35.2418V68.7833C34.3407 71.4187 36.4969 73.575 39.1323 73.575H53.5073C54.825 73.575 55.9031 72.4968 55.9031 71.1791C55.9031 69.8614 54.825 68.7833 53.5073 68.7833H39.1323V35.2418Z" fill="#13CA87"/>
<path d="M76.6269 51.1734L69.9425 44.489C69.7759 44.3179 69.562 44.2003 69.3282 44.1514C69.0943 44.1025 68.8512 44.1245 68.63 44.2145C68.4087 44.3046 68.2194 44.4586 68.0861 44.6569C67.9529 44.8552 67.8819 45.0887 67.8821 45.3276V49.6161H51.1114C49.7937 49.6161 48.7156 50.6942 48.7156 52.0119C48.7156 53.3296 49.7937 54.4077 51.1114 54.4077H67.8821V58.6963C67.8821 59.7744 69.1759 60.3015 69.9186 59.5348L76.6029 52.8505C77.0821 52.3953 77.0821 51.6286 76.6269 51.1734Z" fill="#13CA87"/>
</g>
<defs>
<filter id="filter0_d_1_2075" x="0.979736" y="0.427734" width="111.02" height="111.021" filterUnits="userSpaceOnUse" color-interpolation-filters="sRGB">
<feFlood flood-opacity="0" result="BackgroundImageFix"/>
<feColorMatrix in="SourceAlpha" type="matrix" values="0 0 0 0 0 0 0 0 0 0 0 0 0 0 0 0 0 0 127 0" result="hardAlpha"/>
<feOffset dy="4"/>
<feGaussianBlur stdDeviation="2"/>
<feComposite in2="hardAlpha" operator="out"/>
<feColorMatrix type="matrix" values="0 0 0 0 0 0 0 0 0 0 0 0 0 0 0 0 0 0 0.25 0"/>
<feBlend mode="normal" in2="BackgroundImageFix" result="effect1_dropShadow_1_2075"/>
<feBlend mode="normal" in="SourceGraphic" in2="effect1_dropShadow_1_2075" result="shape"/>
</filter>
</defs>
</svg>
