<svg width="47" height="47" viewBox="0 0 47 47" fill="none" xmlns="http://www.w3.org/2000/svg">
<path d="M11.7502 43.083C10.6731 43.083 9.75136 42.6998 8.985 41.9335C8.21863 41.1671 7.8348 40.2447 7.8335 39.1663V19.583C7.8335 18.5059 8.21733 17.5842 8.985 16.8178C9.75266 16.0515 10.6744 15.6676 11.7502 15.6663H13.7085V11.7497C13.7085 9.04065 14.6635 6.73177 16.5735 4.82305C18.4836 2.91433 20.7924 1.95931 23.5002 1.95801C26.2092 1.95801 28.5187 2.91302 30.4287 4.82305C32.3388 6.73308 33.2931 9.04195 33.2918 11.7497V15.6663H35.2502C36.3272 15.6663 37.2496 16.0502 38.0173 16.8178C38.785 17.5855 39.1681 18.5072 39.1668 19.583V39.1663C39.1668 40.2434 38.7836 41.1658 38.0173 41.9335C37.2509 42.7011 36.3286 43.0843 35.2502 43.083H11.7502ZM11.7502 39.1663H35.2502V19.583H11.7502V39.1663ZM23.5002 33.2913C24.5772 33.2913 25.4996 32.9082 26.2673 32.1418C27.035 31.3754 27.4181 30.4531 27.4168 29.3747C27.4168 28.2976 27.0336 27.3759 26.2673 26.6095C25.5009 25.8431 24.5786 25.4593 23.5002 25.458C22.4231 25.458 21.5014 25.8418 20.735 26.6095C19.9686 27.3772 19.5848 28.2989 19.5835 29.3747C19.5835 30.4518 19.9673 31.3741 20.735 32.1418C21.5027 32.9095 22.4244 33.2926 23.5002 33.2913ZM17.6252 15.6663H29.3752V11.7497C29.3752 10.1177 28.804 8.73058 27.6616 7.58822C26.5193 6.44586 25.1321 5.87467 23.5002 5.87467C21.8682 5.87467 20.4811 6.44586 19.3387 7.58822C18.1963 8.73058 17.6252 10.1177 17.6252 11.7497V15.6663Z" fill="black"/>
</svg>
