<svg width="48" height="52" viewBox="0 0 48 52" fill="none" xmlns="http://www.w3.org/2000/svg">
<path fill-rule="evenodd" clip-rule="evenodd" d="M9.24499 36.2183C9.3826 36.0204 9.56104 35.8597 9.76617 35.7491C9.97131 35.6384 10.1975 35.5808 10.4269 35.5808H17.8136C18.2054 35.5808 18.5812 35.7487 18.8582 36.0476C19.1353 36.3465 19.2909 36.7519 19.2909 37.1747C19.2909 37.5974 19.1353 38.0028 18.8582 38.3017C18.5812 38.6006 18.2054 38.7685 17.8136 38.7685H11.1655L4.51748 48.3316H42.9284L36.2804 38.7685H29.6323C29.2405 38.7685 28.8648 38.6006 28.5877 38.3017C28.3106 38.0028 28.155 37.5974 28.155 37.1747C28.155 36.7519 28.3106 36.3465 28.5877 36.0476C28.8648 35.7487 29.2405 35.5808 29.6323 35.5808H37.0191C37.2484 35.5808 37.4746 35.6384 37.6798 35.7491C37.8849 35.8597 38.0633 36.0204 38.2009 36.2183L47.065 48.9691C47.2296 49.2059 47.3299 49.4875 47.3545 49.7823C47.3791 50.0771 47.3272 50.3735 47.2045 50.6382C47.0818 50.9029 46.8932 51.1256 46.6598 51.2812C46.4264 51.4368 46.1575 51.5193 45.8831 51.5193H1.56279C1.28843 51.5193 1.01949 51.4368 0.786108 51.2812C0.552723 51.1256 0.364115 50.9029 0.241417 50.6382C0.11872 50.3735 0.0667803 50.0771 0.0914194 49.7823C0.116059 49.4875 0.216303 49.2059 0.380919 48.9691L9.24499 36.2183Z" fill="black"/>
<path fill-rule="evenodd" clip-rule="evenodd" d="M11.9043 13.2669C11.9045 10.8131 12.561 8.41149 13.795 6.35023C15.029 4.28898 16.788 2.65564 18.8611 1.64621C20.9342 0.636779 23.2332 0.294137 25.4823 0.659397C27.7314 1.02466 29.8351 2.0823 31.5408 3.70542C33.2466 5.32855 34.482 7.4482 35.0989 9.81003C35.7157 12.1719 35.6878 14.6756 35.0184 17.0207C34.349 19.3658 33.0666 21.4528 31.3251 23.0311C29.5836 24.6094 27.457 25.6121 25.2004 25.9188V43.55C25.2004 43.9727 25.0448 44.3781 24.7677 44.677C24.4906 44.9759 24.1149 45.1438 23.7231 45.1438C23.3312 45.1438 22.9555 44.9759 22.6784 44.677C22.4014 44.3781 22.2457 43.9727 22.2457 43.55V25.922C19.3884 25.5337 16.7609 24.0331 14.8567 21.7023C12.9524 19.3714 11.9026 16.3707 11.9043 13.2637V13.2669Z" fill="black"/>
</svg>
