<svg width="15" height="15" viewBox="0 0 15 15" fill="none" xmlns="http://www.w3.org/2000/svg">
<g clip-path="url(#clip0_1_1407)">
<path d="M13.2722 11.2264C12.8959 10.8909 12.5664 10.5063 12.2927 10.083C11.9939 9.49861 11.8148 8.86044 11.7659 8.20591V6.27811C11.7685 5.25005 11.3955 4.25644 10.7172 3.48395C10.0388 2.71146 9.10174 2.21327 8.08198 2.08298V1.57957C8.08198 1.4414 8.02709 1.30889 7.92939 1.21118C7.83168 1.11348 7.69917 1.05859 7.561 1.05859C7.42283 1.05859 7.29032 1.11348 7.19262 1.21118C7.09491 1.30889 7.04003 1.4414 7.04003 1.57957V2.09079C6.02939 2.23047 5.10362 2.73167 4.43418 3.50156C3.76474 4.27146 3.39699 5.25787 3.39905 6.27811V8.20591C3.35017 8.86044 3.17106 9.49861 2.87222 10.083C2.6033 10.5054 2.27913 10.8899 1.90832 11.2264C1.86669 11.263 1.83333 11.308 1.81045 11.3584C1.78757 11.4089 1.7757 11.4637 1.77563 11.5191V12.0498C1.77563 12.1533 1.81675 12.2526 1.88993 12.3258C1.96312 12.3989 2.06238 12.4401 2.16588 12.4401H13.0147C13.1182 12.4401 13.2174 12.3989 13.2906 12.3258C13.3638 12.2526 13.4049 12.1533 13.4049 12.0498V11.5191C13.4048 11.4637 13.393 11.4089 13.3701 11.3584C13.3472 11.308 13.3138 11.263 13.2722 11.2264ZM2.58734 11.6596C2.95043 11.3088 3.27011 10.9158 3.53954 10.4888C3.91597 9.78307 4.13561 9.00436 4.18344 8.20591V6.27811C4.16796 5.82075 4.24468 5.36496 4.40902 4.93788C4.57336 4.51079 4.82196 4.12114 5.14002 3.79214C5.45809 3.46313 5.8391 3.20149 6.26039 3.0228C6.68167 2.84411 7.13461 2.75202 7.59222 2.75202C8.04983 2.75202 8.50277 2.84411 8.92405 3.0228C9.34534 3.20149 9.72635 3.46313 10.0444 3.79214C10.3625 4.12114 10.6111 4.51079 10.7754 4.93788C10.9398 5.36496 11.0165 5.82075 11.001 6.27811V8.20591C11.0488 9.00436 11.2685 9.78307 11.6449 10.4888C11.9143 10.9158 12.234 11.3088 12.5971 11.6596H2.58734Z" fill="black"/>
<path d="M7.60982 13.7435C7.85565 13.7379 8.09155 13.6454 8.27581 13.4826C8.46006 13.3198 8.5808 13.097 8.61665 12.8538H6.56396C6.60083 13.1036 6.72721 13.3316 6.9196 13.4953C7.11198 13.659 7.35726 13.7472 7.60982 13.7435Z" fill="black"/>
</g>
<defs>
<clipPath id="clip0_1_1407">
<rect width="14.0488" height="14.0488" fill="white" transform="translate(0.585449 0.365967)"/>
</clipPath>
</defs>
</svg>
