<svg width="43" height="43" viewBox="0 0 43 43" fill="none" xmlns="http://www.w3.org/2000/svg">
<circle cx="21.5" cy="21.5" r="21.5" fill="#E8F3F1"/>
<path d="M26.075 27.2568H33.575L31.4675 25.3834C31.1844 25.1318 30.9599 24.8331 30.8068 24.5043C30.6537 24.1756 30.5749 23.8232 30.575 23.4674V19.2568C30.5752 17.602 29.9983 15.9879 28.9238 14.6366C27.8493 13.2853 26.3299 12.2634 24.575 11.7114V11.2568C24.575 10.5495 24.2589 9.87123 23.6963 9.37114C23.1337 8.87104 22.3706 8.59009 21.575 8.59009C20.7793 8.59009 20.0162 8.87104 19.4536 9.37114C18.891 9.87123 18.575 10.5495 18.575 11.2568V11.7114C15.08 12.8101 12.575 15.7741 12.575 19.2568V23.4688C12.575 24.1861 12.254 24.8754 11.6825 25.3834L9.57495 27.2568H17.075M26.075 27.2568V28.5901C26.075 29.651 25.6008 30.6684 24.7569 31.4185C23.913 32.1687 22.7684 32.5901 21.575 32.5901C20.3815 32.5901 19.2369 32.1687 18.393 31.4185C17.5491 30.6684 17.075 29.651 17.075 28.5901V27.2568M26.075 27.2568H17.075" stroke="#55D3A5" stroke-width="2" stroke-linecap="round" stroke-linejoin="round"/>
</svg>
