<svg width="37" height="39" viewBox="0 0 37 39" fill="none" xmlns="http://www.w3.org/2000/svg">
<path d="M27.4156 0.75H9.58437C7.41125 0.75 6.32563 0.75 5.44813 1.05563C4.62084 1.34898 3.8723 1.82907 3.26063 2.45862C2.64897 3.08817 2.19065 3.85023 1.92125 4.68562C1.625 5.58937 1.625 6.70687 1.625 8.94375V35.2013C1.625 36.81 3.47187 37.665 4.64 36.5963C4.96772 36.2934 5.39754 36.1253 5.84375 36.1253C6.28996 36.1253 6.71978 36.2934 7.0475 36.5963L7.95312 37.425C8.52726 37.9559 9.2805 38.2508 10.0625 38.2508C10.8445 38.2508 11.5977 37.9559 12.1719 37.425C12.746 36.8941 13.4993 36.5992 14.2812 36.5992C15.0632 36.5992 15.8165 36.8941 16.3906 37.425C16.9648 37.9559 17.718 38.2508 18.5 38.2508C19.282 38.2508 20.0352 37.9559 20.6094 37.425C21.1835 36.8941 21.9368 36.5992 22.7188 36.5992C23.5007 36.5992 24.254 36.8941 24.8281 37.425C25.4023 37.9559 26.1555 38.2508 26.9375 38.2508C27.7195 38.2508 28.4727 37.9559 29.0469 37.425L29.9525 36.5963C30.2802 36.2934 30.71 36.1253 31.1562 36.1253C31.6025 36.1253 32.0323 36.2934 32.36 36.5963C33.5281 37.665 35.375 36.81 35.375 35.2013V8.94375C35.375 6.70687 35.375 5.5875 35.0787 4.6875C34.8097 3.85169 34.3516 3.08919 33.7399 2.45928C33.1282 1.82938 32.3794 1.34904 31.5519 1.05563C30.6744 0.75 29.5887 0.75 27.4156 0.75Z" stroke="black" stroke-width="1.5"/>
<path d="M15.6875 17.625H27.875M9.125 17.625H10.0625M9.125 11.0625H10.0625M9.125 24.1875H10.0625M15.6875 11.0625H27.875M15.6875 24.1875H27.875" stroke="black" stroke-width="1.5" stroke-linecap="round"/>
</svg>
