<svg width="64" height="66" viewBox="0 0 64 66" fill="none" xmlns="http://www.w3.org/2000/svg">
<path d="M0 66V0L5.33333 4.95L10.6667 0L16 4.95L21.3333 0L26.6667 4.95L32 0L37.3333 4.95L42.6667 0L48 4.95L53.3333 0L58.6667 4.95L64 0V66L58.6667 61.05L53.3333 66L48 61.05L42.6667 66L37.3333 61.05L32 66L26.6667 61.05L21.3333 66L16 61.05L10.6667 66L5.33333 61.05L0 66ZM10.6667 49.5H53.3333V42.9H10.6667V49.5ZM10.6667 36.3H53.3333V29.7H10.6667V36.3ZM10.6667 23.1H53.3333V16.5H10.6667V23.1ZM7.11111 56.43H56.8889V9.57H7.11111V56.43Z" fill="#85B6FF"/>
</svg>
