<svg width="43" height="43" viewBox="0 0 43 43" fill="none" xmlns="http://www.w3.org/2000/svg">
<circle cx="21.5" cy="21.5" r="21.5" fill="#E8F3F1"/>
<path d="M21.5 24C25.64 24 29 25.57 29 27.5V30H14V27.5C14 25.57 17.36 24 21.5 24ZM28 27.5C28 26.12 25.09 25 21.5 25C17.91 25 15 26.12 15 27.5V29H28V27.5ZM21.5 15C22.4283 15 23.3185 15.3687 23.9749 16.0251C24.6313 16.6815 25 17.5717 25 18.5C25 19.4283 24.6313 20.3185 23.9749 20.9749C23.3185 21.6313 22.4283 22 21.5 22C20.5717 22 19.6815 21.6313 19.0251 20.9749C18.3687 20.3185 18 19.4283 18 18.5C18 17.5717 18.3687 16.6815 19.0251 16.0251C19.6815 15.3687 20.5717 15 21.5 15ZM21.5 16C20.837 16 20.2011 16.2634 19.7322 16.7322C19.2634 17.2011 19 17.837 19 18.5C19 19.163 19.2634 19.7989 19.7322 20.2678C20.2011 20.7366 20.837 21 21.5 21C22.163 21 22.7989 20.7366 23.2678 20.2678C23.7366 19.7989 24 19.163 24 18.5C24 17.837 23.7366 17.2011 23.2678 16.7322C22.7989 16.2634 22.163 16 21.5 16Z" fill="#199A8E"/>
</svg>
