<svg width="45" height="45" viewBox="0 0 45 45" fill="none" xmlns="http://www.w3.org/2000/svg">
<path d="M22.5 3.75C12.1444 3.75 3.75 12.1444 3.75 22.5C3.75 32.8556 12.1444 41.25 22.5 41.25C32.8556 41.25 41.25 32.8556 41.25 22.5C41.25 12.1444 32.8556 3.75 22.5 3.75Z" stroke="black" stroke-width="1.5" stroke-linecap="round" stroke-linejoin="round"/>
<path d="M8.0083 34.3987C8.0083 34.3987 12.1877 29.0625 22.5002 29.0625C32.8127 29.0625 36.9939 34.3987 36.9939 34.3987M22.5002 22.5C23.992 22.5 25.4228 21.9074 26.4777 20.8525C27.5325 19.7976 28.1252 18.3668 28.1252 16.875C28.1252 15.3832 27.5325 13.9524 26.4777 12.8975C25.4228 11.8426 23.992 11.25 22.5002 11.25C21.0083 11.25 19.5776 11.8426 18.5227 12.8975C17.4678 13.9524 16.8752 15.3832 16.8752 16.875C16.8752 18.3668 17.4678 19.7976 18.5227 20.8525C19.5776 21.9074 21.0083 22.5 22.5002 22.5V22.5Z" stroke="black" stroke-width="1.5" stroke-linecap="round" stroke-linejoin="round"/>
</svg>
