<svg width="41" height="45" viewBox="0 0 41 45" fill="none" xmlns="http://www.w3.org/2000/svg">
<path d="M18.3152 8.3961C15.4079 8.88132 12.7295 10.3951 10.6924 12.7041C8.65538 15.0132 7.37276 17.9895 7.04214 21.1746C6.71152 24.3597 7.35124 27.5768 8.86275 30.3304C10.3743 33.0841 12.6737 35.2214 15.4069 36.4133M8.79719 37.4153L15.4199 37.3154L15.3159 30.0981M22.0426 37.2155C24.9499 36.7303 27.6283 35.2166 29.6653 32.9075C31.7024 30.5984 32.985 27.6221 33.3156 24.437C33.6462 21.252 33.0065 18.0348 31.495 15.2812C29.9835 12.5276 27.684 10.3902 24.9509 9.19836M31.5606 8.19629L24.9379 8.2962L25.0419 15.5135" stroke="black" stroke-width="2" stroke-linecap="round" stroke-linejoin="round"/>
</svg>
