<svg width="43" height="43" viewBox="0 0 43 43" fill="none" xmlns="http://www.w3.org/2000/svg">
<circle cx="21.5" cy="21.5" r="21.5" fill="#E8F3F1"/>
<path d="M19.7552 13.4969C20.199 11.6677 22.801 11.6677 23.2448 13.4969C23.3114 13.7717 23.4419 14.0269 23.6257 14.2417C23.8096 14.4565 24.0416 14.6248 24.3028 14.7331C24.564 14.8413 24.847 14.8863 25.1289 14.8644C25.4108 14.8426 25.6836 14.7545 25.925 14.6073C27.5323 13.6281 29.3729 15.4677 28.3937 17.076C28.2468 17.3173 28.1588 17.5899 28.137 17.8716C28.1152 18.1533 28.1602 18.4362 28.2683 18.6973C28.3764 18.9583 28.5445 19.1902 28.7591 19.374C28.9737 19.5578 29.2286 19.6884 29.5031 19.7552C31.3323 20.199 31.3323 22.801 29.5031 23.2448C29.2283 23.3114 28.9731 23.4419 28.7583 23.6257C28.5435 23.8096 28.3752 24.0416 28.2669 24.3028C28.1587 24.564 28.1137 24.847 28.1356 25.1289C28.1574 25.4108 28.2455 25.6836 28.3927 25.925C29.3719 27.5323 27.5323 29.3729 25.924 28.3937C25.6826 28.2468 25.4101 28.1588 25.1284 28.137C24.8467 28.1152 24.5638 28.1602 24.3027 28.2683C24.0417 28.3764 23.8098 28.5445 23.626 28.7591C23.4422 28.9737 23.3116 29.2286 23.2448 29.5031C22.801 31.3323 20.199 31.3323 19.7552 29.5031C19.6886 29.2283 19.5581 28.9731 19.3743 28.7583C19.1904 28.5435 18.9584 28.3752 18.6972 28.2669C18.436 28.1587 18.153 28.1137 17.8711 28.1356C17.5892 28.1574 17.3164 28.2455 17.075 28.3927C15.4677 29.3719 13.6271 27.5323 14.6062 25.924C14.7532 25.6826 14.8412 25.4101 14.863 25.1284C14.8848 24.8467 14.8398 24.5638 14.7317 24.3027C14.6236 24.0417 14.4555 23.8098 14.2409 23.626C14.0263 23.4422 13.7714 23.3116 13.4969 23.2448C11.6677 22.801 11.6677 20.199 13.4969 19.7552C13.7717 19.6886 14.0269 19.5581 14.2417 19.3743C14.4565 19.1904 14.6248 18.9584 14.7331 18.6972C14.8413 18.436 14.8863 18.153 14.8644 17.8711C14.8426 17.5892 14.7545 17.3164 14.6073 17.075C13.6281 15.4677 15.4677 13.6271 17.076 14.6062C18.1135 15.2396 19.4677 14.6792 19.7552 13.4969Z" stroke="#13CA87" stroke-width="2" stroke-linecap="round" stroke-linejoin="round"/>
<path d="M24.625 21.5C24.625 22.3288 24.2958 23.1237 23.7097 23.7097C23.1237 24.2958 22.3288 24.625 21.5 24.625C20.6712 24.625 19.8763 24.2958 19.2903 23.7097C18.7042 23.1237 18.375 22.3288 18.375 21.5C18.375 20.6712 18.7042 19.8763 19.2903 19.2903C19.8763 18.7042 20.6712 18.375 21.5 18.375C22.3288 18.375 23.1237 18.7042 23.7097 19.2903C24.2958 19.8763 24.625 20.6712 24.625 21.5V21.5Z" stroke="#13CA87" stroke-width="2" stroke-linecap="round" stroke-linejoin="round"/>
</svg>
