<svg width="246" height="272" viewBox="0 0 246 272" fill="none" xmlns="http://www.w3.org/2000/svg">
<path d="M240.794 70.4983V62.2455C240.794 46.6176 240.794 38.7971 238.724 32.5093C236.845 26.6699 233.644 21.3427 229.37 16.9419C225.096 12.541 219.865 9.1852 214.084 7.13525C207.953 5 200.368 5 185.186 5H60.6081C45.4255 5 37.8408 5 31.7102 7.13525C25.9304 9.18475 20.7007 12.5389 16.4273 16.9372C12.154 21.3356 8.95187 26.6597 7.06975 32.4962C5 38.8102 5 46.6176 5 62.2455V175.296M240.794 122.897V245.693C240.794 256.933 227.891 262.906 219.73 255.439C217.44 253.324 214.437 252.149 211.32 252.149C208.202 252.149 205.199 253.324 202.91 255.439L196.583 261.229C192.571 264.939 187.309 266.999 181.845 266.999C176.382 266.999 171.119 264.939 167.108 261.229C163.097 257.52 157.835 255.46 152.371 255.46C146.908 255.46 141.645 257.52 137.634 261.229C133.623 264.939 128.36 266.999 122.897 266.999C117.434 266.999 112.171 264.939 108.16 261.229C104.149 257.52 98.8861 255.46 93.4227 255.46C87.9593 255.46 82.6968 257.52 78.6856 261.229C74.6744 264.939 69.4119 266.999 63.9485 266.999C58.485 266.999 53.2226 264.939 49.2113 261.229L42.8842 255.439C40.5946 253.324 37.5917 252.149 34.4742 252.149C31.3568 252.149 28.3539 253.324 26.0642 255.439C17.9032 262.906 5 256.933 5 245.693V227.694" stroke="black" stroke-width="10" stroke-linecap="round"/>
<path d="M90.1478 115.037L108.867 135.997L155.646 83.5979" stroke="black" stroke-width="10" stroke-linecap="round" stroke-linejoin="round"/>
<path d="M63.9485 181.845H83.598M181.845 181.845H122.897" stroke="black" stroke-width="10" stroke-linecap="round"/>
</svg>
