<svg width="296" height="296" viewBox="0 0 296 296" fill="none" xmlns="http://www.w3.org/2000/svg">
<path d="M296 148C296 144.075 294.441 140.31 291.665 137.535C288.89 134.759 285.125 133.2 281.2 133.2C277.275 133.2 273.51 134.759 270.735 137.535C267.959 140.31 266.4 144.075 266.4 148H296ZM148 29.6C151.925 29.6 155.69 28.0407 158.465 25.2652C161.241 22.4896 162.8 18.7252 162.8 14.8C162.8 10.8748 161.241 7.11036 158.465 4.33482C155.69 1.55928 151.925 0 148 0V29.6ZM259 266.4H37V296H259V266.4ZM29.6 259V37H0V259H29.6ZM266.4 148V259H296V148H266.4ZM37 29.6H148V0H37V29.6ZM37 266.4C35.0374 266.4 33.1552 265.62 31.7674 264.233C30.3796 262.845 29.6 260.963 29.6 259H0C0 268.813 3.8982 278.224 10.837 285.163C17.7759 292.102 27.187 296 37 296V266.4ZM259 296C268.813 296 278.224 292.102 285.163 285.163C292.102 278.224 296 268.813 296 259H266.4C266.4 260.963 265.62 262.845 264.233 264.233C262.845 265.62 260.963 266.4 259 266.4V296ZM29.6 37C29.6 35.0374 30.3796 33.1552 31.7674 31.7674C33.1552 30.3796 35.0374 29.6 37 29.6V0C27.187 0 17.7759 3.8982 10.837 10.837C3.8982 17.7759 0 27.187 0 37H29.6Z" fill="#13CA87"/>
<path d="M14.8 229.4L93.9282 156.865C96.5953 154.421 100.065 153.038 103.683 152.978C107.3 152.918 110.814 154.185 113.56 156.54L207.2 236.8M177.6 199.8L212.92 164.48C215.439 161.959 218.784 160.432 222.339 160.179C225.894 159.926 229.42 160.965 232.271 163.103L281.2 199.8M244.2 103.6V14.8V103.6ZM207.2 51.8L244.2 14.8L281.2 51.8" fill="#13CA87"/>
<path d="M14.8 229.4L93.9282 156.865C96.5953 154.421 100.065 153.038 103.683 152.978C107.3 152.918 110.814 154.185 113.56 156.54L207.2 236.8M177.6 199.8L212.92 164.48C215.439 161.959 218.784 160.432 222.339 160.179C225.894 159.926 229.42 160.965 232.271 163.103L281.2 199.8M244.2 103.6V14.8M244.2 14.8L207.2 51.8M244.2 14.8L281.2 51.8" stroke="#13CA87" stroke-width="4" stroke-linecap="round" stroke-linejoin="round"/>
</svg>
