<svg width="43" height="43" viewBox="0 0 43 43" fill="none" xmlns="http://www.w3.org/2000/svg">
<circle cx="21.5" cy="21.5" r="21.5" fill="#E8F3F1"/>
<path fill-rule="evenodd" clip-rule="evenodd" d="M29.9394 28.679H25.6971C23.709 28.679 22.0909 27.06 22.0898 25.0706C22.0898 23.0791 23.708 21.4591 25.6971 21.458H29.9394C30.3732 21.458 30.7254 21.8106 30.7254 22.245C30.7254 22.6793 30.3732 23.0319 29.9394 23.0319H25.6971C24.5747 23.0329 23.6618 23.9469 23.6618 25.0696C23.6618 26.1912 24.5757 27.1051 25.6971 27.1051H29.9394C30.3732 27.1051 30.7254 27.4577 30.7254 27.8921C30.7254 28.3265 30.3732 28.679 29.9394 28.679Z" fill="#199A8E"/>
<path fill-rule="evenodd" clip-rule="evenodd" d="M26.1769 25.7912H25.85C25.4161 25.7912 25.064 25.4386 25.064 25.0042C25.064 24.5698 25.4161 24.2173 25.85 24.2173H26.1769C26.6108 24.2173 26.9629 24.5698 26.9629 25.0042C26.9629 25.4386 26.6108 25.7912 26.1769 25.7912Z" fill="#199A8E"/>
<mask id="mask0_1_376" style="mask-type:luminance" maskUnits="userSpaceOnUse" x="9" y="15" width="22" height="21">
<path fill-rule="evenodd" clip-rule="evenodd" d="M9.09619 15.1479H30.7254V35.2653H9.09619V15.1479Z" fill="white"/>
</mask>
<g mask="url(#mask0_1_376)">
<path fill-rule="evenodd" clip-rule="evenodd" d="M15.3816 16.7218C12.7826 16.7218 10.6677 18.8392 10.6677 21.4414V28.972C10.6677 31.5741 12.7826 33.6915 15.3816 33.6915H24.4405C27.0396 33.6915 29.1534 31.5741 29.1534 28.972V21.4414C29.1534 18.8392 27.0396 16.7218 24.4405 16.7218H15.3816ZM24.4405 35.2654H15.3816C11.9159 35.2654 9.0957 32.4419 9.0957 28.972V21.4414C9.0957 17.9705 11.9159 15.1479 15.3816 15.1479H24.4405C27.9063 15.1479 30.7254 17.9705 30.7254 21.4414V28.972C30.7254 32.4419 27.9063 35.2654 24.4405 35.2654Z" fill="#199A8E"/>
</g>
<path fill-rule="evenodd" clip-rule="evenodd" d="M20.2938 21.4836H14.6356C14.2017 21.4836 13.8496 21.131 13.8496 20.6966C13.8496 20.2622 14.2017 19.9097 14.6356 19.9097H20.2938C20.7276 19.9097 21.0798 20.2622 21.0798 20.6966C21.0798 21.131 20.7276 21.4836 20.2938 21.4836Z" fill="#199A8E"/>
</svg>
